<?xml version="1.0" standalone="no"?>
<!DOCTYPE svg PUBLIC "-//W3C//DTD SVG 20010904//EN"
 "http://www.w3.org/TR/2001/REC-SVG-20010904/DTD/svg10.dtd">
<svg version="1.0" xmlns="http://www.w3.org/2000/svg"
 width="640.000000pt" height="640.000000pt" viewBox="0 0 640.000000 640.000000"
 preserveAspectRatio="xMidYMid meet">

<g transform="translate(0.000000,640.000000) scale(0.100000,-0.100000)"
fill="#000000" stroke="none">
<path d="M3514 4295 c-28 -14 -79 -50 -115 -81 -35 -31 -90 -69 -122 -85 -66
-32 -85 -45 -214 -144 -50 -38 -119 -86 -154 -105 -35 -19 -90 -60 -124 -91
-33 -31 -88 -73 -121 -92 -33 -20 -67 -43 -74 -52 -7 -8 -20 -15 -29 -15 -9 0
-33 -9 -54 -20 -20 -11 -45 -20 -55 -20 -10 0 -26 -6 -37 -14 -11 -7 -45 -24
-75 -36 -30 -13 -62 -29 -70 -35 -8 -7 -26 -16 -40 -20 -28 -8 -60 -33 -60
-47 0 -14 57 -9 70 7 7 8 20 15 30 15 10 0 23 7 30 15 7 8 20 15 30 15 9 0 29
9 43 20 14 11 34 20 45 20 12 0 24 5 27 10 9 14 89 12 104 -2 10 -11 15 -10
25 4 11 15 36 17 187 19 210 3 241 -4 286 -64 31 -42 77 -76 88 -65 3 2 -4 22
-14 44 -12 24 -16 45 -11 54 16 29 51 60 68 60 10 0 22 4 27 9 6 5 33 16 61
25 69 22 131 65 189 129 26 28 57 63 70 77 13 14 41 61 62 105 86 176 137 224
225 210 20 -4 44 -3 53 2 13 8 8 13 -25 28 -23 10 -62 42 -86 71 -69 80 -146
96 -240 49z"/>
<path d="M3490 3481 c0 -11 5 -23 10 -26 6 -3 10 -15 10 -25 0 -11 10 -28 21
-39 23 -21 44 -54 55 -83 3 -10 10 -18 15 -18 13 0 11 48 -2 56 -6 3 -17 22
-25 40 -8 19 -19 34 -24 34 -6 0 -10 11 -10 23 0 22 -27 57 -43 57 -4 0 -7 -9
-7 -19z"/>
<path d="M3928 3358 c-36 -47 -68 -128 -64 -161 4 -38 14 -44 25 -15 5 13 16
30 25 37 9 7 16 18 16 23 0 5 13 28 29 51 32 48 47 87 32 87 -5 0 -16 2 -24 5
-8 4 -24 -7 -39 -27z"/>
<path d="M3191 3339 c-18 -33 -19 -44 -9 -56 10 -13 7 -20 -20 -44 -35 -31
-41 -59 -17 -79 10 -8 15 -31 15 -71 0 -41 5 -62 17 -75 23 -22 53 -90 53
-118 0 -11 12 -32 25 -45 14 -13 25 -27 25 -31 0 -5 -28 -10 -62 -12 -78 -5
-99 6 -189 100 -37 38 -80 77 -96 87 -17 10 -37 29 -46 44 -13 23 -14 30 0 66
26 72 26 75 9 75 -9 0 -22 -12 -28 -27 -7 -16 -21 -38 -32 -51 -19 -21 -27
-59 -27 -124 0 -15 -4 -30 -9 -33 -6 -4 -10 -19 -10 -35 0 -33 -12 -44 -39
-35 -14 4 -20 15 -20 38 0 85 -34 246 -60 285 -6 10 -10 5 -14 -18 -8 -40 -64
-100 -94 -100 -16 0 -32 16 -58 55 -58 86 -56 88 -61 -80 -2 -85 -2 -83 -25
-96 -28 -15 -51 8 -54 53 -1 18 -2 54 -3 80 -2 51 -28 91 -43 66 -5 -7 -9 -37
-9 -66 0 -81 -44 -82 -78 -2 l-15 35 -9 -30 c-5 -16 -8 -88 -6 -160 3 -119 2
-130 -15 -133 -23 -5 -62 32 -130 120 -53 70 -85 91 -67 42 6 -14 10 -51 10
-83 0 -38 5 -63 14 -70 28 -23 29 -111 1 -111 -7 0 -19 10 -28 23 -8 12 -23
31 -33 42 -22 24 -48 67 -66 108 -7 15 -15 27 -19 27 -3 0 -19 19 -34 41 -21
32 -29 38 -36 28 -15 -24 -10 -38 26 -78 19 -21 35 -44 35 -52 0 -7 9 -22 20
-34 17 -18 18 -24 7 -33 -10 -9 -22 -7 -50 7 -20 10 -37 18 -37 16 0 -12 34
-65 42 -65 13 0 5 -60 -29 -200 -17 -67 -81 -48 -124 36 -13 27 -30 53 -37 57
-6 4 -21 25 -31 46 -23 43 -60 81 -47 46 4 -11 10 -40 13 -65 3 -25 10 -48 15
-51 16 -11 4 -44 -17 -47 -50 -7 -67 -14 -85 -32 -16 -16 -18 -25 -10 -45 6
-15 10 -31 10 -36 0 -16 -52 -10 -66 8 -7 10 -16 15 -20 11 -4 -5 0 -16 8 -25
21 -25 28 -48 17 -64 -7 -11 -12 -12 -29 -1 -31 19 -49 15 -43 -9 3 -12 21
-28 39 -35 31 -13 34 -18 34 -59 0 -52 -14 -65 -41 -36 -11 12 -26 21 -34 21
-8 0 -18 6 -22 14 -11 19 -79 49 -111 48 -15 0 -33 5 -40 10 -8 7 -12 7 -12
-1 0 -6 8 -14 18 -18 9 -3 25 -14 35 -25 10 -10 29 -18 43 -18 13 0 27 -6 30
-14 3 -8 19 -18 35 -21 16 -4 31 -11 34 -16 4 -5 17 -9 30 -9 13 0 37 -13 53
-30 39 -38 47 -94 19 -133 -17 -26 -21 -27 -36 -13 -10 9 -26 13 -38 10 -14
-4 -34 2 -55 17 -36 26 -36 26 -73 28 -14 0 -38 15 -55 35 -17 19 -52 45 -78
57 -26 13 -62 36 -80 52 -18 15 -37 27 -42 27 -57 0 63 -190 162 -254 32 -21
47 -38 47 -53 1 -22 -3 -23 -73 -23 -69 0 -76 -2 -94 -27 -18 -25 -25 -27 -76
-25 -31 1 -56 1 -56 -1 0 -13 82 -56 117 -62 24 -4 45 -10 48 -15 5 -9 104
-12 117 -4 4 3 1 12 -7 21 -29 28 -14 47 35 48 25 0 54 -3 65 -8 29 -12 67
-70 59 -92 -10 -26 -73 -13 -97 20 -10 14 -23 25 -28 25 -11 0 -1 -49 13 -67
14 -17 2 -19 -123 -22 -130 -3 -197 -13 -164 -25 11 -4 35 -14 53 -22 53 -23
270 -94 287 -94 9 0 21 -11 27 -25 13 -29 34 -31 86 -9 20 9 46 18 57 20 11 2
32 6 46 10 18 4 43 -3 78 -20 28 -15 51 -29 51 -32 0 -23 -26 -45 -60 -50 -22
-4 -45 -13 -51 -20 -6 -8 -18 -14 -25 -14 -8 0 -46 -24 -85 -53 -38 -30 -90
-64 -116 -77 l-46 -23 22 -19 c18 -14 40 -18 100 -18 153 0 343 54 432 122 20
15 41 28 46 28 5 0 24 16 43 35 19 19 38 35 44 35 5 0 20 10 32 21 14 13 30
19 39 15 26 -10 9 -45 -51 -105 -30 -29 -54 -60 -54 -67 0 -8 -9 -19 -20 -26
-11 -7 -20 -16 -20 -20 0 -15 38 -8 44 7 3 8 11 15 18 15 28 1 118 102 118
132 0 8 9 23 20 33 12 11 20 31 20 50 0 38 22 59 70 70 111 23 111 23 128 5
19 -20 72 -31 147 -33 71 -2 100 8 148 52 35 32 54 41 112 51 39 7 79 18 90
25 25 15 294 25 395 15 99 -10 174 -31 235 -64 28 -15 68 -34 90 -41 47 -16
187 -35 261 -35 61 0 114 -24 114 -51 0 -14 -7 -19 -30 -19 -16 0 -30 -4 -30
-9 0 -6 23 -7 53 -4 60 6 85 -4 156 -60 l44 -35 -2 -69 c-2 -60 -5 -71 -29
-90 -34 -28 -37 -28 -75 1 -33 25 -108 39 -114 21 -2 -6 8 -23 23 -38 14 -15
32 -44 41 -64 8 -20 34 -57 58 -81 24 -24 45 -55 48 -70 2 -15 7 -34 11 -43 5
-12 -1 -19 -23 -27 -17 -6 -31 -15 -31 -21 0 -5 -9 -13 -21 -16 -14 -5 -39 6
-86 36 -73 48 -99 51 -125 17 l-18 -23 -20 25 c-25 32 -25 40 3 82 26 37 47
109 47 159 0 31 -1 31 -35 26 -41 -7 -49 2 -35 39 8 21 8 34 -1 51 -20 38 -37
27 -50 -33 -10 -44 -20 -62 -51 -88 l-39 -34 3 -93 3 -94 -47 -3 c-38 -2 -51
1 -65 18 -10 12 -28 33 -40 46 l-23 25 -1 -53 c-2 -61 -2 -59 3 -78 5 -22 -76
-26 -107 -6 -31 21 -119 21 -139 1 -18 -19 -42 -19 -49 -1 -3 7 -26 23 -51 36
-25 12 -48 26 -52 31 -3 5 -10 7 -15 4 -5 -4 -2 -17 7 -30 9 -13 14 -37 13
-52 -3 -29 38 -105 65 -120 34 -19 106 -96 106 -113 0 -48 -69 -65 -132 -32
-18 9 -35 20 -36 25 -2 4 -13 12 -24 18 -20 11 -21 9 -14 -30 9 -60 -5 -81
-48 -71 -18 4 -39 10 -45 14 -14 9 -14 0 -1 -25 6 -10 16 -19 23 -19 33 0 99
-90 111 -151 3 -14 24 -47 47 -72 47 -54 48 -81 4 -85 -24 -2 -40 7 -78 42
-61 56 -207 128 -316 155 -108 27 -111 27 -73 -7 18 -16 32 -34 32 -41 0 -19
-42 -29 -93 -24 -26 3 -47 3 -47 -1 0 -31 150 -109 255 -133 39 -8 90 -26 115
-38 25 -12 55 -25 67 -29 12 -4 52 -27 89 -51 39 -26 80 -45 95 -45 19 0 30
-6 34 -20 5 -15 15 -20 45 -20 21 0 42 -4 45 -10 4 -6 62 -10 143 -9 110 0
133 2 118 12 -11 7 -30 23 -43 36 -21 22 -22 24 -5 47 22 30 47 30 66 1 9 -12
37 -39 64 -60 39 -29 58 -37 91 -37 29 0 41 4 41 14 0 11 9 13 38 9 20 -3 39
-10 40 -15 2 -4 70 -8 152 -8 l148 0 40 40 c28 29 42 53 47 80 9 52 34 66 75
45 26 -13 37 -14 64 -4 18 7 44 9 57 6 13 -4 61 -43 106 -87 74 -73 85 -80
121 -80 l40 0 -60 62 c-59 61 -118 149 -118 176 0 8 -9 27 -21 43 -42 59 1 92
89 66 54 -17 62 -14 62 16 0 11 14 35 31 54 17 19 28 41 25 49 -10 25 20 88
49 104 35 20 37 34 4 38 -15 2 -36 14 -49 27 -21 22 -21 24 -5 49 11 16 15 35
11 51 -5 20 -1 27 23 40 17 8 33 15 37 15 3 0 40 -35 83 -77 42 -43 109 -107
149 -143 50 -46 72 -73 72 -89 0 -12 7 -47 16 -77 15 -51 17 -53 48 -52 44 2
56 -8 56 -42 0 -16 4 -41 10 -55 5 -14 13 -57 16 -95 7 -66 6 -70 -25 -107
-17 -20 -31 -41 -31 -45 0 -5 117 -8 261 -8 l260 0 -3 43 c-3 42 -3 42 -44 43
-55 1 -64 9 -64 52 0 44 8 59 35 63 40 6 64 -11 75 -52 6 -22 17 -39 25 -39 8
0 26 -5 40 -12 24 -11 25 -15 19 -55 l-6 -43 351 0 351 0 0 164 0 164 -31 6
c-31 6 -32 7 -26 51 5 36 4 45 -8 45 -9 0 -20 -10 -25 -23 -5 -12 -19 -33 -31
-47 -18 -21 -29 -25 -78 -24 -31 0 -67 6 -80 13 -22 12 -23 17 -17 81 6 69 -9
162 -33 208 -6 11 -11 38 -11 58 0 21 -7 46 -17 56 -14 15 -17 36 -16 100 2
94 31 168 65 168 29 0 98 -58 114 -95 7 -17 31 -51 53 -75 22 -24 52 -67 67
-94 30 -56 53 -86 66 -86 4 0 8 49 8 108 l0 108 -59 59 c-32 33 -98 89 -146
125 l-87 64 6 56 c4 30 14 83 22 117 19 76 16 104 -13 119 -34 16 -63 45 -63
61 0 8 -9 26 -20 40 -11 14 -20 36 -20 50 0 13 -7 26 -15 29 -8 4 -15 16 -15
29 0 12 -7 28 -15 35 -8 7 -15 27 -15 45 0 18 -9 54 -21 80 -22 49 -22 80 -1
160 13 46 11 50 -17 35 -12 -6 -21 -21 -21 -34 0 -29 -16 -43 -54 -48 -38 -4
-43 -21 -11 -36 14 -6 25 -18 25 -26 0 -13 30 -74 67 -140 7 -11 13 -28 13
-37 0 -9 7 -22 15 -29 8 -7 15 -22 15 -34 0 -12 9 -27 20 -34 12 -7 20 -23 20
-41 0 -16 7 -34 15 -41 8 -7 15 -20 15 -30 0 -10 7 -20 15 -24 9 -3 15 -18 15
-34 0 -16 6 -35 14 -41 7 -6 16 -30 20 -52 5 -32 3 -44 -10 -54 -9 -6 -15 -18
-12 -26 2 -7 -1 -34 -9 -58 -7 -24 -13 -56 -13 -70 0 -14 -14 -53 -30 -86 -16
-33 -30 -73 -30 -90 0 -16 -7 -39 -15 -49 -8 -11 -15 -29 -15 -41 0 -11 -9
-38 -20 -60 -11 -22 -20 -46 -20 -53 0 -22 -40 -82 -54 -82 -28 0 -43 36 -49
117 -4 46 -16 107 -28 140 -31 79 -28 122 11 183 25 39 30 56 25 80 -7 33 -14
35 -62 18 -29 -11 -35 -10 -57 11 -15 14 -22 29 -19 42 3 11 0 55 -7 97 -12
67 -18 81 -52 114 -44 43 -48 45 -48 21 0 -9 -8 -25 -17 -35 -14 -16 -15 -24
-5 -52 7 -18 12 -53 12 -77 0 -25 9 -88 20 -141 l21 -97 -23 -50 c-27 -57 -55
-76 -95 -60 -33 12 -68 47 -77 77 -6 17 -15 22 -44 22 -47 0 -58 8 -64 45 -3
17 -7 37 -9 45 -3 11 6 16 34 18 35 3 38 1 43 -28 12 -59 27 -25 28 63 1 90
-10 111 -32 62 -9 -19 -19 -25 -45 -25 -18 0 -42 7 -53 15 -10 8 -27 15 -37
15 -10 0 -31 10 -48 22 -24 18 -29 27 -24 49 5 21 2 30 -14 39 -12 6 -21 16
-21 22 0 6 -11 21 -25 34 -14 13 -25 33 -25 44 0 23 51 76 123 127 l45 32 22
-24 c36 -38 35 -110 -2 -156 -15 -20 -28 -40 -28 -43 0 -16 47 -3 79 22 20 15
56 38 81 51 25 13 60 35 77 48 31 24 32 26 18 53 -20 39 -19 49 8 61 13 6 38
36 57 66 30 52 32 59 21 87 -7 17 -15 50 -17 73 -2 23 -9 54 -14 68 -6 15 -10
37 -10 50 0 13 -6 30 -14 37 -31 32 -39 125 -11 140 15 9 22 58 8 58 -5 0 -17
-14 -28 -30 -11 -16 -26 -30 -32 -30 -7 0 -19 -11 -28 -23 -8 -13 -27 -30 -43
-37 -15 -8 -37 -23 -50 -34 -18 -16 -25 -17 -35 -7 -9 10 -8 15 6 25 14 11 17
28 17 90 0 53 4 76 13 77 6 1 21 2 32 3 47 2 32 195 -15 196 -3 0 -12 -13 -22
-29 -9 -16 -26 -31 -39 -33 -16 -2 -25 -12 -31 -36 -7 -27 -13 -32 -36 -30
-37 3 -47 -5 -87 -68 -19 -30 -41 -54 -48 -54 -19 0 -57 29 -57 44 0 7 -13 25
-30 41 -16 16 -30 37 -30 48 0 25 -24 16 -28 -11 -2 -12 -6 -22 -9 -22 -3 0
-29 26 -59 57 -52 55 -55 57 -69 39 -24 -31 -29 -85 -17 -168 10 -68 9 -81 -6
-108 -9 -16 -24 -30 -33 -30 -21 0 -45 28 -53 62 -3 15 -15 32 -26 38 -18 10
-19 7 -17 -77 l2 -88 -32 -3 c-18 -2 -33 1 -33 7 0 13 -33 23 -54 15 -14 -5
-15 -18 -9 -93 6 -84 19 -122 52 -149 19 -15 19 -85 1 -107 -7 -8 -23 -15 -36
-15 -31 0 -103 65 -122 110 -8 19 -25 48 -38 63 -13 16 -27 39 -30 53 -8 31
-24 31 -24 1 0 -13 -6 -32 -14 -42 -12 -17 -16 -17 -30 -6 -9 8 -19 11 -23 8
-6 -7 2 -20 52 -82 31 -40 36 -78 18 -145 -8 -30 -13 -35 -43 -38 -19 -2 -39
-10 -43 -18 -12 -20 -56 -18 -65 4 -13 35 -91 114 -106 109 -10 -4 -12 0 -8
15 3 14 1 19 -6 14 -7 -4 -12 -21 -12 -37 0 -42 111 -148 155 -149 19 0 35 -7
43 -20 7 -11 23 -20 37 -20 34 0 32 -8 -15 -57 -44 -46 -43 -46 -119 -5 -65
34 -129 88 -148 125 -8 18 -22 36 -29 40 -8 4 -14 20 -14 35 0 33 -29 119 -64
189 -14 28 -26 54 -26 58 0 4 -11 33 -24 64 -13 31 -33 83 -46 116 -12 33 -31
78 -43 100 -19 34 -22 54 -20 128 1 49 6 94 11 100 5 7 12 24 16 40 3 15 10
27 15 27 5 0 15 24 21 54 6 30 20 66 31 79 24 31 24 37 -1 37 -23 0 -27 14
-34 130 -3 47 -6 86 -6 88 0 2 -10 2 -22 0 -20 -3 -23 -10 -26 -53 -2 -33 2
-61 13 -82 14 -26 15 -37 6 -64 -8 -22 -8 -36 -1 -43 14 -14 12 -60 -4 -98 -8
-18 -18 -50 -21 -70 -12 -76 -63 -33 -62 52 0 33 -7 71 -18 95 -20 45 -20 41
-11 76 4 20 -1 36 -24 64 -28 36 -30 43 -30 126 0 76 3 92 20 109 11 11 27 20
35 20 8 0 15 7 15 15 0 8 -4 15 -10 15 -17 0 -50 78 -50 118 0 21 7 60 16 86
13 37 14 50 5 59 -15 15 -33 -7 -66 -80 -25 -56 -29 -59 -69 -43 -33 12 -42
49 -22 89 15 29 15 31 -6 43 -13 6 -32 11 -44 10 -11 -2 -37 11 -58 28 -22 16
-51 30 -65 30 -14 0 -39 7 -55 15 -39 21 -41 20 -65 -26z m-273 -518 c71 -36
92 -64 92 -121 0 -30 -7 -61 -16 -75 -18 -27 -34 -25 -34 5 0 26 -39 47 -51
29 -13 -21 -11 -27 16 -51 31 -27 35 -92 7 -107 -19 -10 -69 -4 -78 10 -3 5
-13 9 -22 9 -26 1 -68 41 -92 89 l-22 44 25 21 c14 12 40 50 58 86 43 89 53
94 117 61z m368 -158 c-10 -10 -19 5 -10 18 6 11 8 11 12 0 2 -7 1 -15 -2 -18z
m-1352 -46 c13 -10 16 -20 12 -35 -11 -35 -37 -43 -65 -21 l-23 19 23 25 c28
29 29 29 53 12z m1156 -51 c0 -39 -21 -48 -52 -21 -38 33 -35 45 12 45 35 0
40 -3 40 -24z m387 -63 c4 -10 37 -46 74 -81 48 -45 72 -76 83 -108 8 -24 30
-63 49 -87 19 -23 38 -57 42 -75 8 -38 33 -91 52 -110 7 -8 10 -18 7 -24 -9
-14 16 -88 42 -123 12 -16 26 -43 30 -60 4 -16 15 -46 26 -65 25 -48 23 -77
-8 -105 -34 -31 -73 -38 -187 -33 -73 3 -103 10 -148 31 -31 15 -61 27 -68 27
-20 0 -139 89 -146 109 -4 13 -13 16 -40 13 -32 -4 -40 1 -87 52 -52 56 -52
57 -98 50 -25 -4 -47 -8 -50 -11 -10 -9 27 -23 62 -23 28 0 42 -7 63 -31 42
-50 32 -63 -55 -71 -91 -8 -129 -2 -197 28 -60 26 -80 55 -64 95 10 28 42 39
110 39 66 0 84 9 76 39 -16 64 -16 87 -2 100 14 11 13 15 -4 32 -14 14 -18 27
-13 42 9 31 12 33 35 19 33 -21 35 -6 16 187 -3 30 56 66 84 50 10 -5 41 -14
69 -19 27 -5 69 -19 92 -30 23 -11 50 -20 59 -20 15 0 12 6 -12 32 -21 24 -29
43 -29 69 0 43 16 59 68 70 58 11 62 10 69 -8z m-263 -23 c16 -6 26 -17 26
-30 0 -27 -53 -27 -80 0 -11 11 -27 20 -35 20 -8 0 -15 5 -15 10 0 13 71 13
104 0z m83 -46 c-9 -9 -28 6 -21 18 4 6 10 6 17 -1 6 -6 8 -13 4 -17z m-1287
-79 c26 -42 24 -88 -4 -94 -11 -2 -24 3 -30 11 -6 8 -19 17 -28 21 -10 3 -18
15 -18 26 0 19 38 70 52 71 3 0 16 -16 28 -35z m117 -217 c15 -25 76 -48 146
-58 79 -12 112 -33 122 -81 4 -16 22 -41 41 -55 19 -15 34 -35 34 -45 0 -16
-8 -19 -62 -18 -77 1 -98 6 -98 24 0 19 -39 59 -75 76 -16 8 -31 20 -31 27 -1
6 -2 18 -3 25 -3 26 -19 39 -40 32 -33 -10 -28 -60 9 -95 20 -19 30 -38 30
-58 0 -16 8 -40 18 -53 11 -13 22 -36 26 -52 8 -36 -12 -44 -55 -23 -36 18
-85 21 -94 6 -10 -16 -23 -12 -30 10 -5 14 3 32 25 60 27 34 30 43 19 56 -11
13 -10 17 4 25 19 11 23 39 6 39 -6 0 -13 -9 -16 -20 -6 -24 -45 -27 -63 -5
-18 21 -14 110 7 156 14 32 22 39 44 39 16 0 32 -6 36 -12z m545 -329 c16 -21
29 -29 44 -26 12 2 31 -3 42 -12 21 -16 21 -16 2 -41 -18 -23 -19 -24 -38 -7
-25 23 -45 22 -110 -9 -63 -30 -138 -30 -170 0 -26 23 -43 20 -67 -10 -43 -54
-172 -79 -201 -39 -20 28 -14 48 21 64 17 7 40 23 52 34 17 15 32 19 66 15 33
-4 49 -1 66 13 16 13 40 19 75 19 28 1 62 7 76 15 14 8 46 14 72 15 41 0 50
-4 70 -31z m-846 -302 l27 -23 -46 -27 c-25 -15 -52 -27 -60 -27 -8 0 -20 -7
-27 -15 -7 -8 -23 -15 -35 -15 -12 0 -28 -7 -35 -15 -7 -8 -25 -15 -41 -15
-24 0 -29 4 -29 25 0 18 7 28 25 35 14 5 28 17 31 25 4 8 12 15 20 15 7 0 18
9 23 19 10 17 61 37 103 40 9 1 29 -9 44 -22z m2852 -249 c3 -42 0 -49 -21
-59 -18 -8 -30 -8 -46 0 -45 25 -10 117 42 109 19 -3 22 -10 25 -50z m313 -89
l33 -32 -24 -19 c-13 -10 -30 -22 -37 -27 -12 -6 -13 -18 -3 -71 6 -34 17 -72
25 -84 7 -12 16 -39 20 -61 5 -34 2 -44 -14 -60 l-21 -18 25 -43 c30 -51 31
-65 6 -88 -19 -17 -22 -16 -78 27 -32 24 -84 72 -115 105 -65 68 -74 104 -37
138 12 10 47 52 77 93 46 62 53 77 44 92 -12 18 -8 43 11 67 17 21 55 13 88
-19z m702 -316 c8 -16 19 -60 26 -100 8 -43 18 -74 27 -77 16 -6 19 -52 4 -61
-10 -6 -30 11 -125 105 -63 62 -65 74 -19 121 45 46 68 49 87 12z m-120 -165
c18 -11 50 -40 72 -62 22 -23 57 -54 78 -69 64 -48 87 -95 87 -178 0 -91 18
-199 37 -220 12 -15 11 -20 -11 -45 l-26 -29 -37 41 c-92 100 -143 167 -143
189 0 13 -12 46 -26 73 -15 30 -26 66 -26 89 1 30 -5 43 -30 64 -23 19 -31 36
-35 71 -6 53 2 98 18 98 6 0 25 -10 42 -22z m-97 -89 c9 -16 -12 -33 -31 -25
-14 5 -15 9 -5 21 15 18 26 19 36 4z m-49 -166 c22 -23 24 -33 19 -71 -4 -28
-14 -50 -28 -62 -22 -18 -24 -18 -35 -2 -7 9 -18 23 -25 31 -17 20 -10 92 10
113 23 23 31 22 59 -9z m-1299 -243 l4 -57 -61 -62 c-34 -33 -68 -61 -74 -61
-20 0 -37 22 -37 47 0 14 -10 27 -26 36 l-25 13 40 45 39 44 11 -28 11 -28 24
28 c34 41 46 68 46 104 l0 32 22 -28 c15 -19 23 -46 26 -85z m206 79 c11 -33
0 -79 -19 -79 -26 0 -65 23 -71 42 -3 11 -3 31 0 44 6 22 11 25 44 22 29 -2
38 -8 46 -29z m1831 -120 c12 -18 -4 -57 -26 -64 -12 -4 -24 -3 -28 2 -3 5
-14 12 -23 16 -18 6 -24 37 -11 50 10 11 81 8 88 -4z m223 -81 c-6 -18 -28
-21 -28 -4 0 9 7 16 16 16 9 0 14 -5 12 -12z"/>
<path d="M3545 2310 c-3 -5 3 -10 14 -10 12 0 21 5 21 10 0 6 -6 10 -14 10 -8
0 -18 -4 -21 -10z"/>
<path d="M3315 1867 c-4 -10 -5 -21 -1 -24 10 -10 18 4 13 24 -4 17 -4 17 -12
0z"/>
<path d="M3716 3280 c-10 -10 -15 -24 -11 -30 4 -6 3 -19 -1 -28 -5 -9 -9 -56
-9 -104 l0 -87 39 42 c36 39 40 40 50 23 6 -11 18 -27 27 -36 8 -9 20 -25 24
-36 8 -15 10 -10 13 24 3 36 -1 47 -25 71 -20 19 -32 46 -41 89 -7 34 -17 62
-22 62 -6 0 -10 7 -10 15 0 20 -11 18 -34 -5z"/>
<path d="M3177 2903 c-12 -11 -8 -23 8 -23 8 0 15 7 15 15 0 16 -12 20 -23 8z"/>
<path d="M3900 2650 c0 -13 11 -13 30 0 12 8 11 10 -7 10 -13 0 -23 -4 -23
-10z"/>
<path d="M730 1910 c0 -17 7 -20 40 -20 l40 0 -20 20 c-11 11 -29 20 -40 20
-13 0 -20 -7 -20 -20z"/>
<path d="M5640 1829 c-11 -19 -10 -20 9 -9 22 11 29 30 11 30 -5 0 -14 -9 -20
-21z"/>
<path d="M3344 1505 c-10 -8 -38 -15 -61 -15 -44 0 -49 -5 -34 -28 6 -10 18
-11 52 -3 62 15 96 13 134 -5 19 -9 51 -14 76 -12 43 4 43 4 17 15 -14 7 -29
17 -33 22 -3 6 -21 11 -39 11 -18 0 -41 7 -52 15 -24 18 -36 19 -60 0z"/>
<path d="M828 1493 c-57 -9 -14 -50 68 -63 77 -13 201 -13 209 0 3 6 15 10 26
10 11 0 17 5 14 10 -3 6 -21 10 -38 10 -18 0 -43 7 -55 16 -23 16 -169 27
-224 17z"/>
<path d="M1289 1470 c-9 -5 -42 -11 -73 -12 -31 -2 -56 -7 -56 -11 0 -4 37 -7
83 -5 63 2 82 6 82 17 0 18 -16 23 -36 11z"/>
<path d="M2912 698 c7 -19 38 -22 38 -4 0 10 -9 16 -21 16 -12 0 -19 -5 -17
-12z"/>
<path d="M6367 463 c-13 -12 -7 -23 13 -23 11 0 20 7 20 15 0 15 -21 21 -33 8z"/>
<path d="M2518 182 c53 -65 128 -140 163 -161 31 -19 49 -21 204 -21 113 0
165 4 155 10 -8 5 -27 10 -42 10 -15 0 -34 7 -42 16 -9 8 -57 26 -108 39 -51
13 -106 30 -123 39 -16 9 -40 16 -53 16 -12 0 -41 12 -65 27 -23 15 -59 35
-80 45 l-38 18 29 -38z"/>
<path d="M4998 199 c-20 -22 -24 -55 -6 -61 20 -7 13 -76 -10 -99 -24 -21 -29
-39 -11 -39 26 0 48 45 49 101 0 38 5 61 15 69 20 16 19 36 -1 44 -19 7 -15 9
-36 -15z"/>
<path d="M4776 170 c-20 -50 -20 -90 -1 -116 8 -10 15 -27 15 -36 0 -15 9 -18
45 -18 25 0 45 4 45 9 0 6 -13 34 -30 64 -16 29 -32 72 -36 95 -4 23 -10 42
-14 42 -4 0 -15 -18 -24 -40z"/>
<path d="M4249 123 c-1 -5 0 -20 1 -35 1 -17 -5 -30 -18 -37 -11 -6 -22 -20
-25 -31 -4 -17 0 -20 24 -20 26 0 29 3 29 34 0 19 5 38 10 41 16 10 12 55 -5
55 -8 0 -15 -3 -16 -7z"/>
<path d="M2035 10 c-3 -5 -1 -10 4 -10 6 0 11 5 11 10 0 6 -2 10 -4 10 -3 0
-8 -4 -11 -10z"/>
</g>
</svg>
